<svg width="401" height="400" viewBox="0 0 401 400" fill="none" xmlns="http://www.w3.org/2000/svg">
<rect width="400" height="400" fill="#0BD1FD" fill-opacity="0.27"/>
<path d="M315.832 134.722H227.98C209.027 134.722 193.607 112.152 193.607 84.4101C193.607 56.6679 209.027 34.0979 227.98 34.0979H234.23C237.668 24.0058 242.967 15.4676 249.547 9.4153C256.223 3.27035 263.982 0.00336217 271.906 0C293.887 0 312.208 24.8818 313.913 56.83H315.832C330.518 56.83 342.466 74.3012 342.466 95.7761C342.466 117.251 330.518 134.722 315.832 134.722ZM227.98 36.217C209.838 36.217 195.079 57.8362 195.079 84.4101C195.079 110.984 209.838 132.603 227.98 132.603H315.832C329.706 132.603 340.994 116.083 340.994 95.7761C340.994 75.4695 329.706 58.949 315.832 58.949H312.534L312.491 57.954C311.165 26.6447 293.338 2.11905 271.906 2.11905C256.473 2.11905 242.126 15.2672 235.354 35.6151L235.154 36.217H227.98Z" fill="#271ABB" fill-opacity="0.8"/>
<path d="M227.98 36.217C209.838 36.217 195.079 57.8362 195.079 84.4101C195.079 110.984 209.838 132.603 227.98 132.603H315.832C329.706 132.603 340.994 116.083 340.994 95.7761C340.994 75.4695 329.706 58.949 315.832 58.949H312.534L312.491 57.954C311.165 26.6447 293.338 2.11905 271.906 2.11905C256.473 2.11905 242.126 15.2672 235.354 35.6151L235.154 36.217H227.98Z" fill="#271ABB" fill-opacity="0.8"/>
<path d="M180.936 180.556C222.357 180.556 255.936 146.977 255.936 105.556C255.936 64.1342 222.357 30.5556 180.936 30.5556C139.515 30.5556 105.936 64.1342 105.936 105.556C105.936 146.977 139.515 180.556 180.936 180.556Z" fill="#FCCC63"/>
<path d="M136.225 315.722H48.3724C29.4194 315.722 14 293.152 14 265.41C14 237.668 29.4194 215.098 48.3724 215.098H54.6224C58.061 205.006 63.3596 196.468 69.9397 190.415C76.616 184.27 84.3743 181.003 92.2987 181C114.28 181 132.601 205.882 134.306 237.83H136.225C150.911 237.83 162.858 255.301 162.858 276.776C162.858 298.251 150.911 315.722 136.225 315.722ZM48.3724 217.217C30.2311 217.217 15.472 238.836 15.472 265.41C15.472 291.984 30.2311 313.603 48.3724 313.603H136.225C150.099 313.603 161.386 297.083 161.386 276.776C161.386 256.47 150.099 239.949 136.225 239.949H132.926L132.884 238.954C131.558 207.645 113.731 183.119 92.2987 183.119C76.8658 183.119 62.5184 196.267 55.747 216.615L55.5468 217.217H48.3724Z" fill="#271ABB" fill-opacity="0.8"/>
<path d="M48.3724 217.217C30.2311 217.217 15.472 238.836 15.472 265.41C15.472 291.984 30.2311 313.603 48.3724 313.603H136.225C150.099 313.603 161.386 297.083 161.386 276.776C161.386 256.47 150.099 239.949 136.225 239.949H132.926L132.884 238.954C131.558 207.645 113.731 183.119 92.2987 183.119C76.8658 183.119 62.5184 196.267 55.747 216.615L55.5468 217.217H48.3724Z" fill="#271ABB" fill-opacity="0.8"/>
<path d="M363.465 374.111H241.657C215.379 374.111 194 347.12 194 313.944C194 280.768 215.379 253.777 241.657 253.777H250.323C255.091 241.708 262.437 231.497 271.561 224.26C280.817 216.911 291.574 213.004 302.561 213C333.038 213 358.44 242.756 360.804 280.962H363.465C383.827 280.962 400.393 301.855 400.393 327.536C400.393 353.218 383.827 374.111 363.465 374.111ZM241.657 256.311C216.504 256.311 196.041 282.165 196.041 313.944C196.041 345.723 216.504 371.577 241.657 371.577H363.465C382.702 371.577 398.352 351.821 398.352 327.536C398.352 303.252 382.702 283.496 363.465 283.496H358.892L358.833 282.306C356.994 244.864 332.277 215.534 302.561 215.534C281.164 215.534 261.271 231.258 251.882 255.591L251.605 256.311H241.657Z" fill="#271ABB" fill-opacity="0.8"/>
<path d="M241.657 256.311C216.504 256.311 196.041 282.165 196.041 313.944C196.041 345.723 216.504 371.577 241.657 371.577H363.465C382.702 371.577 398.352 351.821 398.352 327.536C398.352 303.252 382.702 283.496 363.465 283.496H358.892L358.833 282.306C356.994 244.864 332.277 215.534 302.561 215.534C281.164 215.534 261.271 231.258 251.882 255.591L251.605 256.311H241.657Z" fill="#271ABB" fill-opacity="0.8"/>
</svg>
