<svg width="400" height="400" viewBox="0 0 400 400" fill="none" xmlns="http://www.w3.org/2000/svg">
<g clip-path="url(#clip0)">
<path d="M404 82C404.044 130.197 432.323 364.999 401 401.5C369.678 438.001 409.949 402.194 362.5 409.24L175.225 411.281C175.141 411.356 172.138 411.5 172.138 411.5C171.634 411.431 171.125 411.356 170.621 411.281C166.764 410.711 162.942 410.03 159.156 409.24C144.331 406.156 129.908 401.371 116.17 394.98C116.026 394.916 115.889 394.847 115.745 394.783C108.089 391.212 104.5 411 93.5331 382.623C93.3527 382.511 102.175 406.612 102 406.5C101.698 406.308 92.4031 381.909 92.106 381.712C92.0105 381.653 52.732 411.564 52.6365 411.5C46.2559 407.37 79.2981 372.908 73.427 368.075C101 400.5 32.7865 406.735 32.5 406.5C31.3488 405.54 21.13 344.981 20 344C19.9894 343.995 69.1299 364.445 69.1193 364.44C63.3452 359.411 10.9474 414.893 5.77717 409.24C5.76125 409.218 -5.98409 388.021 -6 388C-28.7122 363.175 13.8079 293.343 5.77716 260.602C5.7135 260.367 5.66045 260.138 5.6021 259.903C1.87047 244.371 -7.51008 73.4783 -7.5 57.5C-7.5 -53.4921 89.5437 11.5 200 11.5C310.456 11.5 404 -28.9921 404 82Z" fill="#3F3D56"/>
<path opacity="0.8" d="M218.49 230.618L235.981 210.042L253.472 189.466L263.346 177.85C263.892 177.208 263.049 176.205 262.503 176.848L245.012 197.424L227.521 218L217.647 229.615C217.101 230.258 217.944 231.261 218.49 230.618V230.618Z" fill="url(#paint0_linear)"/>
<path d="M207.454 331.632L165.923 385.796L171.667 387.128L203.919 345.395H207.454V331.632Z" fill="#2F2E41"/>
<path d="M146.933 311.039C183.49 311.039 213.126 281.404 213.126 244.847C213.126 208.29 183.49 178.654 146.933 178.654C110.376 178.654 80.7407 208.29 80.7407 244.847C80.7407 281.404 110.376 311.039 146.933 311.039Z" fill="#E6E6E6"/>
<path d="M140.423 206.867C144.618 206.867 148.018 203.467 148.018 199.271C148.018 195.076 144.618 191.676 140.423 191.676C136.227 191.676 132.827 195.076 132.827 199.271C132.827 203.467 136.227 206.867 140.423 206.867Z" fill="#CBCBCB"/>
<path d="M153.444 282.826C157.639 282.826 161.04 279.425 161.04 275.23C161.04 271.035 157.639 267.634 153.444 267.634C149.249 267.634 145.848 271.035 145.848 275.23C145.848 279.425 149.249 282.826 153.444 282.826Z" fill="#CBCBCB"/>
<path d="M182.742 238.336C185.739 238.336 188.168 235.907 188.168 232.91C188.168 229.914 185.739 227.485 182.742 227.485C179.746 227.485 177.317 229.914 177.317 232.91C177.317 235.907 179.746 238.336 182.742 238.336Z" fill="#CBCBCB"/>
<path d="M120.89 267.634C130.479 267.634 138.252 259.861 138.252 250.272C138.252 240.684 130.479 232.91 120.89 232.91C111.302 232.91 103.528 240.684 103.528 250.272C103.528 259.861 111.302 267.634 120.89 267.634Z" fill="#CBCBCB"/>
<path d="M133.695 188.064C134.743 188.064 135.592 187.21 135.592 186.157C135.592 185.104 134.743 184.251 133.695 184.251C132.647 184.251 131.798 185.104 131.798 186.157C131.798 187.21 132.647 188.064 133.695 188.064Z" fill="#6C63FF"/>
<path d="M150.139 213.814L149.192 214.759L148.251 213.807L147.62 214.437L148.561 215.389L147.614 216.334L148.241 216.968L149.188 216.023L150.128 216.975L150.76 216.345L149.819 215.393L150.766 214.448L150.139 213.814Z" fill="#E6E6E6"/>
<path d="M157.728 158.524L156.781 159.469L155.841 158.518L155.21 159.148L156.15 160.099L155.203 161.044L155.83 161.679L156.777 160.734L157.718 161.685L158.349 161.055L157.408 160.103L158.355 159.158L157.728 158.524Z" fill="#E6E6E6"/>
<path d="M181.58 53.604C179.532 54.9758 177.435 51.711 179.523 50.4002C181.572 49.0285 183.668 52.2933 181.58 53.604Z" fill="#E6E6E6"/>
<path d="M62.895 195.494L61.5915 195.207L61.8769 193.897L61.008 193.705L60.722 195.016L59.4186 194.729L59.2281 195.602L60.5316 195.889L60.2462 197.199L61.1151 197.391L61.4011 196.08L62.7045 196.368L62.895 195.494Z" fill="#E6E6E6"/>
<path d="M262.364 38.2366L261.061 37.9493L261.346 36.6389L260.477 36.4476L260.192 37.7579L258.888 37.4711L258.698 38.3443L260.001 38.6316L259.716 39.9414L260.585 40.1327L260.871 38.8224L262.174 39.1098L262.364 38.2366Z" fill="#E6E6E6"/>
<path d="M364.221 122.996L362.918 122.709L363.203 121.398L362.334 121.207L362.048 122.517L360.745 122.23L360.554 123.104L361.858 123.391L361.572 124.701L362.441 124.892L362.727 123.582L364.031 123.869L364.221 122.996Z" fill="#E6E6E6"/>
<path d="M118.016 58.9083L116.712 58.6209L116.998 57.3112L116.129 57.1198L115.843 58.4296L114.539 58.1428L114.349 59.0159L115.653 59.3033L115.367 60.6136L116.236 60.8044L116.522 59.4946L117.825 59.7814L118.016 58.9083Z" fill="#E6E6E6"/>
<path d="M241.56 102.419C242.607 102.419 243.457 101.565 243.457 100.512C243.457 99.4592 242.607 98.6057 241.56 98.6057C240.512 98.6057 239.662 99.4592 239.662 100.512C239.662 101.565 240.512 102.419 241.56 102.419Z" fill="#6C63FF"/>
<path d="M227.351 129.393L226.048 129.106L226.333 127.795L225.464 127.604L225.178 128.914L223.875 128.627L223.684 129.501L224.988 129.788L224.702 131.098L225.571 131.289L225.857 129.979L227.161 130.266L227.351 129.393Z" fill="#E6E6E6"/>
<path d="M277.698 105.819L276.394 105.532L276.68 104.222L275.811 104.031L275.525 105.34L274.221 105.054L274.03 105.927L275.334 106.214L275.049 107.524L275.918 107.715L276.204 106.405L277.507 106.692L277.698 105.819Z" fill="#E6E6E6"/>
<path opacity="0.8" d="M189.843 116.539L207.334 95.9633L224.825 75.3873L234.699 63.7718C235.245 63.1292 234.402 62.1265 233.856 62.7692L216.365 83.3452L198.874 103.921L189 115.537C188.453 116.179 189.296 117.182 189.843 116.539V116.539Z" fill="url(#paint1_linear)"/>
<path d="M273.146 378.027V388.075C259.054 393.64 244.375 397.567 229.395 399.781H164.143C162.472 399.478 160.806 399.152 159.156 398.806V378.027H273.146Z" fill="#2F2E41"/>
<path d="M217.003 346.964C216.631 346.9 216.239 346.836 215.836 346.767C213.464 346.383 210.605 345.946 207.326 345.493C207.103 345.461 206.875 345.429 206.642 345.397C203.936 345.029 200.96 344.656 197.751 344.288C180.154 342.3 155.576 340.706 130.493 342.897C131.114 340.391 131.687 337.886 132.228 335.391L108.207 339.128L134.127 325.881C136.569 312.272 138.248 298.536 139.157 284.738L126.18 286.753L139.448 279.972C140.398 262.898 139.952 251.533 139.952 251.533C139.952 251.533 96.5517 274.204 61.8462 308.854C60.5729 304.345 59.1777 299.893 57.6923 295.522L39.0504 311.195L54.4191 286.396C49.5123 273.476 43.8836 260.845 37.5597 248.563L27.4907 257.029L35.3634 244.331C27.3952 229.218 21.1671 219.719 21.1671 219.719C21.1671 219.719 14.0637 231.414 5.60213 249.47C13.5822 282.503 29.7851 312.956 52.6897 337.971C57.8675 343.633 63.3618 348.993 69.1459 354.027C70.2758 355.008 71.4164 355.978 72.5677 356.938C78.6993 362.038 85.128 366.766 91.8196 371.097C92.2122 371.352 92.6048 371.603 93.0027 371.854C113.257 384.771 135.669 393.902 159.157 398.806C160.806 399.152 162.472 399.478 164.143 399.781C164.552 399.856 164.96 399.931 165.369 400H172.138C172.138 400 175.141 399.856 175.225 399.781C183.634 392.388 191.257 384.914 197.83 378.027C199.326 376.465 200.764 374.929 202.149 373.437L190.806 366.789L205.363 369.924C206.032 369.183 206.69 368.452 207.326 367.738C210.594 364.071 213.427 360.75 215.777 357.93C216.18 357.439 216.573 356.97 216.95 356.512C221.231 351.319 223.586 348.153 223.586 348.153C223.586 348.153 221.22 347.668 217.003 346.964Z" fill="#2F2E41"/>
<path d="M301.28 144.653L299.977 144.366L300.262 143.056L299.393 142.865L299.107 144.175L297.803 143.888L297.613 144.761L298.917 145.048L298.631 146.359L299.5 146.549L299.786 145.24L301.09 145.526L301.28 144.653Z" fill="#E6E6E6"/>
<path d="M273.163 140.922L271.86 140.634L272.145 139.325L271.276 139.133L270.99 140.443L269.686 140.156L269.496 141.029L270.8 141.317L270.515 142.627L271.384 142.818L271.67 141.508L272.973 141.795L273.163 140.922Z" fill="#E6E6E6"/>
<path d="M313.482 70.0224L312.178 69.7351L312.464 68.4253L311.595 68.2339L311.309 69.5437L310.005 69.2569L309.814 70.1301L311.118 70.4174L310.833 71.7277L311.702 71.9185L311.988 70.6088L313.291 70.8956L313.482 70.0224Z" fill="#E6E6E6"/>
<path d="M327.275 189.965L325.971 189.677L326.257 188.368L325.388 188.176L325.102 189.486L323.798 189.199L323.607 190.072L324.911 190.36L324.626 191.67L325.495 191.861L325.781 190.551L327.084 190.838L327.275 189.965Z" fill="#E6E6E6"/>
<path d="M297.567 213.42L296.263 213.133L296.549 211.823L295.68 211.632L295.394 212.942L294.09 212.655L293.899 213.528L295.203 213.815L294.918 215.126L295.787 215.316L296.073 214.007L297.376 214.293L297.567 213.42Z" fill="#E6E6E6"/>
<path d="M269.45 239.008L268.146 238.721L268.432 237.411L267.563 237.219L267.277 238.529L265.973 238.242L265.783 239.116L267.086 239.403L266.801 240.713L267.67 240.904L267.956 239.594L269.259 239.881L269.45 239.008Z" fill="#E6E6E6"/>
<path d="M325.683 114.801L324.38 114.514L324.665 113.204L323.796 113.012L323.51 114.322L322.206 114.035L322.016 114.909L323.32 115.196L323.034 116.506L323.903 116.697L324.189 115.387L325.493 115.674L325.683 114.801Z" fill="#E6E6E6"/>
</g>
<defs>
<linearGradient id="paint0_linear" x1="217.47" y1="203.733" x2="263.523" y2="203.733" gradientUnits="userSpaceOnUse">
<stop stop-color="white"/>
<stop offset="1" stop-color="white" stop-opacity="0.3"/>
</linearGradient>
<linearGradient id="paint1_linear" x1="26850.3" y1="13229.3" x2="30848.2" y2="13229.3" gradientUnits="userSpaceOnUse">
<stop stop-color="white"/>
<stop offset="1" stop-color="white" stop-opacity="0.3"/>
</linearGradient>
<clipPath id="clip0">
<rect width="400" height="400" fill="white"/>
</clipPath>
</defs>
</svg>
